solid CATIA STL
  facet normal  0.000000e+000  0.000000e+000  1.000000e+000
    outer loop
      vertex -4.900000e+001 -2.400000e+001  3.600000e+000
      vertex  4.900000e+001 -2.400000e+001  3.600000e+000
      vertex -4.900000e+001  2.400000e+001  3.600000e+000
    endloop
  endfacet
  facet normal  -0.000000e+000  0.000000e+000  1.000000e+000
    outer loop
      vertex -4.900000e+001  2.400000e+001  3.600000e+000
      vertex  4.900000e+001 -2.400000e+001  3.600000e+000
      vertex  4.900000e+001  2.400000e+001  3.600000e+000
    endloop
  endfacet
  facet normal  0.000000e+000  0.000000e+000 -1.000000e+000
    outer loop
      vertex -5.000000e+001 -2.500000e+001  0.000000e+000
      vertex -5.000000e+001  2.500000e+001  0.000000e+000
      vertex  5.000000e+001 -2.500000e+001  0.000000e+000
    endloop
  endfacet
  facet normal  0.000000e+000  0.000000e+000 -1.000000e+000
    outer loop
      vertex  5.000000e+001 -2.500000e+001  0.000000e+000
      vertex -5.000000e+001  2.500000e+001  0.000000e+000
      vertex  5.000000e+001  2.500000e+001  0.000000e+000
    endloop
  endfacet
  facet normal  9.635180e-001  0.000000e+000  2.676439e-001
    outer loop
      vertex  5.000000e+001 -2.500000e+001  0.000000e+000
      vertex  5.000000e+001  2.500000e+001  0.000000e+000
      vertex  4.900000e+001 -2.400000e+001  3.600000e+000
    endloop
  endfacet
  facet normal  9.635180e-001  -0.000000e+000  2.676439e-001
    outer loop
      vertex  4.900000e+001 -2.400000e+001  3.600000e+000
      vertex  5.000000e+001  2.500000e+001  0.000000e+000
      vertex  4.900000e+001  2.400000e+001  3.600000e+000
    endloop
  endfacet
  facet normal  0.000000e+000 -9.635180e-001  2.676439e-001
    outer loop
      vertex  5.000000e+001 -2.500000e+001  0.000000e+000
      vertex  4.900000e+001 -2.400000e+001  3.600000e+000
      vertex -5.000000e+001 -2.500000e+001  0.000000e+000
    endloop
  endfacet
  facet normal  0.000000e+000 -9.635179e-001  2.676439e-001
    outer loop
      vertex -5.000000e+001 -2.500000e+001  0.000000e+000
      vertex  4.900000e+001 -2.400000e+001  3.600000e+000
      vertex -4.900000e+001 -2.400000e+001  3.600000e+000
    endloop
  endfacet
  facet normal -9.635180e-001  0.000000e+000  2.676439e-001
    outer loop
      vertex -5.000000e+001  2.500000e+001  0.000000e+000
      vertex -5.000000e+001 -2.500000e+001  0.000000e+000
      vertex -4.900000e+001  2.400000e+001  3.600000e+000
    endloop
  endfacet
  facet normal -9.635180e-001  0.000000e+000  2.676439e-001
    outer loop
      vertex -4.900000e+001  2.400000e+001  3.600000e+000
      vertex -5.000000e+001 -2.500000e+001  0.000000e+000
      vertex -4.900000e+001 -2.400000e+001  3.600000e+000
    endloop
  endfacet
  facet normal  0.000000e+000  9.635180e-001  2.676439e-001
    outer loop
      vertex -5.000000e+001  2.500000e+001  0.000000e+000
      vertex -4.900000e+001  2.400000e+001  3.600000e+000
      vertex  5.000000e+001  2.500000e+001  0.000000e+000
    endloop
  endfacet
  facet normal  0.000000e+000  9.635179e-001  2.676439e-001
    outer loop
      vertex  5.000000e+001  2.500000e+001  0.000000e+000
      vertex -4.900000e+001  2.400000e+001  3.600000e+000
      vertex  4.900000e+001  2.400000e+001  3.600000e+000
    endloop
  endfacet
endsolid CATIA STL
